<?xml version="1.0" encoding="UTF-8" standalone="no"?><!DOCTYPE svg PUBLIC "-//W3C//DTD SVG 1.1//EN" "http://www.w3.org/Graphics/SVG/1.1/DTD/svg11.dtd"><svg width="100%" height="100%" viewBox="0 0 142 63" version="1.1" xmlns="http://www.w3.org/2000/svg" xmlns:xlink="http://www.w3.org/1999/xlink" xml:space="preserve" xmlns:serif="http://www.serif.com/" style="fill-rule:evenodd;clip-rule:evenodd;"><rect x="0" y="0" width="60.121" height="62.411" style="fill:none;"/><path d="M34.882,25.374l-0,13.522c0.531,0.238 1.145,0.375 1.841,0.412l0,0.247c0,0.11 -0.027,0.293 -0.082,0.55l-5.552,-0c-0.037,-0.293 -0.009,-0.559 0.083,-0.797c0.659,-0.092 1.108,-0.22 1.346,-0.385c0.257,-0.183 0.385,-0.495 0.385,-0.934l0,-13.468c-0.568,-0.238 -1.2,-0.384 -1.896,-0.439c-0,-0.348 0.027,-0.605 0.082,-0.77l5.579,0c0,0.367 -0.027,0.623 -0.082,0.77c-0.623,0.073 -1.063,0.201 -1.319,0.385c-0.257,0.183 -0.385,0.485 -0.385,0.906Zm15.429,5.992l0,7.503c0.586,0.22 1.228,0.357 1.924,0.412c-0,0.257 -0.018,0.532 -0.055,0.825l-5.607,-0c-0.018,-0.22 -0.009,-0.495 0.028,-0.825c0.659,-0.073 1.108,-0.201 1.346,-0.384c0.257,-0.184 0.385,-0.504 0.385,-0.962l0,-6.404c0,-0.898 -0.211,-1.585 -0.632,-2.061c-0.421,-0.477 -1.008,-0.715 -1.759,-0.715c-1.594,0 -2.785,0.953 -3.573,2.858l0,7.256c0.513,0.22 1.136,0.357 1.869,0.412c0,0.33 -0.027,0.605 -0.082,0.825l-5.635,-0c-0.036,-0.275 -0.018,-0.55 0.055,-0.825c0.678,-0.073 1.146,-0.201 1.402,-0.384c0.275,-0.184 0.412,-0.504 0.412,-0.962l0,-8.74c-0.531,-0.019 -0.943,-0.028 -1.236,-0.028l-0.688,0c0,-0.22 0.037,-0.458 0.11,-0.714c1.21,-0.477 2.401,-0.816 3.573,-1.017c0.11,0.696 0.184,1.594 0.22,2.693c0.935,-1.905 2.355,-2.858 4.26,-2.858c1.081,-0 1.961,0.348 2.639,1.044c0.696,0.697 1.044,1.713 1.044,3.051Zm7.908,8.025c0.916,0 1.64,-0.192 2.171,-0.577c0.532,-0.403 0.797,-0.889 0.797,-1.457c0,-0.568 -0.22,-1.044 -0.659,-1.429c-0.44,-0.384 -0.981,-0.723 -1.622,-1.017c-0.641,-0.293 -1.282,-0.595 -1.924,-0.907c-0.623,-0.329 -1.154,-0.76 -1.594,-1.291c-0.439,-0.55 -0.659,-1.191 -0.659,-1.924c-0,-1.155 0.412,-2.025 1.236,-2.611c0.825,-0.605 1.814,-0.907 2.969,-0.907c1.172,-0 2.29,0.183 3.353,0.55c0.018,0.311 0.027,0.732 0.027,1.264c0,0.531 -0.055,1.145 -0.165,1.841c-0.146,0 -0.357,-0.027 -0.632,-0.082c0.018,-0.183 0.028,-0.358 0.028,-0.522c-0,-1.375 -0.834,-2.062 -2.501,-2.062c-0.733,0 -1.338,0.202 -1.814,0.605c-0.458,0.385 -0.687,0.87 -0.687,1.457c-0,0.568 0.219,1.053 0.659,1.456c0.458,0.403 1.008,0.742 1.649,1.017c0.66,0.275 1.31,0.568 1.952,0.88c0.659,0.311 1.209,0.733 1.649,1.264c0.458,0.513 0.687,1.118 0.687,1.814c-0,1.154 -0.477,2.061 -1.429,2.721c-0.935,0.641 -2.089,0.962 -3.463,0.962c-1.375,-0 -2.657,-0.193 -3.848,-0.578c-0.037,-0.421 -0.055,-0.906 -0.055,-1.456c-0,-0.568 0.055,-1.191 0.165,-1.869c0.165,-0 0.375,0.018 0.632,0.055l-0,0.33c-0,0.861 0.284,1.493 0.852,1.896c0.586,0.385 1.328,0.577 2.226,0.577Zm18.139,-9.564l0,8.657c0.77,0.037 1.365,0.055 1.787,0.055c0.018,0.202 0.027,0.358 0.027,0.467l0,0.248c-1.044,0.513 -2.226,0.843 -3.545,0.989c-0.129,-0.678 -0.211,-1.612 -0.248,-2.803c-1.117,1.997 -2.528,2.996 -4.232,2.996c-1.045,-0 -1.924,-0.367 -2.639,-1.1c-0.714,-0.733 -1.071,-1.777 -1.071,-3.133l-0,-7.036c-0.239,-0.018 -0.495,-0.027 -0.77,-0.027c-0.257,-0 -0.541,0.009 -0.852,0.027c0,-0.201 0.037,-0.449 0.11,-0.742c1.337,-0.568 2.501,-0.907 3.49,-1.017l0,8.63c0,0.898 0.211,1.604 0.633,2.117c0.439,0.513 1.007,0.769 1.704,0.769c0.696,0 1.355,-0.238 1.978,-0.714c0.642,-0.495 1.191,-1.191 1.649,-2.089l0,-6.074c0,-0.861 -0.256,-1.457 -0.769,-1.787c0.036,-0.201 0.082,-0.339 0.137,-0.412c0.678,-0.293 1.484,-0.44 2.419,-0.44l0.302,0c-0.073,0.66 -0.11,1.466 -0.11,2.419Zm7.558,1.044l0,0.193c0.44,-1.136 1.099,-2.052 1.979,-2.749c0.879,-0.696 1.823,-1.044 2.831,-1.044c0.091,0.22 0.137,0.495 0.137,0.824c0,0.312 -0.064,0.687 -0.192,1.127c-1.521,0 -2.767,0.504 -3.738,1.512c-0.55,0.604 -0.889,1.356 -1.017,2.254l0,5.716c0.825,0.33 1.787,0.522 2.886,0.577c-0,0.349 -0.037,0.623 -0.11,0.825l-6.624,-0c-0.018,-0.22 -0.009,-0.495 0.028,-0.825c0.696,-0.091 1.172,-0.229 1.429,-0.412c0.275,-0.183 0.412,-0.504 0.412,-0.962l0,-8.712c-0.531,-0.018 -0.943,-0.028 -1.237,-0.028l-0.687,0c0,-0.22 0.037,-0.458 0.11,-0.714c1.21,-0.477 2.401,-0.816 3.573,-1.017c0.147,0.934 0.22,2.079 0.22,3.435Zm9.689,-6.349c-0.275,0.294 -0.614,0.44 -1.017,0.44c-0.403,0 -0.751,-0.146 -1.044,-0.44c-0.293,-0.293 -0.44,-0.641 -0.44,-1.044c0,-0.403 0.147,-0.751 0.44,-1.044c0.293,-0.293 0.641,-0.44 1.044,-0.44c0.403,0 0.742,0.147 1.017,0.44c0.293,0.275 0.44,0.623 0.44,1.044c-0,0.403 -0.147,0.751 -0.44,1.044Zm-1.979,13.413l0,-8.713c-0.293,-0.018 -0.604,-0.027 -0.934,-0.027c-0.312,-0 -0.641,0.009 -0.989,0.027c-0,-0.183 0.036,-0.439 0.109,-0.769c1.283,-0.477 2.547,-0.816 3.793,-1.017l-0,11.433c0.513,0.22 1.136,0.357 1.869,0.412c-0,0.33 -0.027,0.605 -0.082,0.825l-5.635,-0c-0.036,-0.275 -0.018,-0.55 0.055,-0.825c0.678,-0.073 1.146,-0.201 1.402,-0.384c0.275,-0.184 0.412,-0.504 0.412,-0.962Zm7.54,-12.011c-0,-1.777 0.422,-3.105 1.265,-3.985c0.843,-0.898 1.823,-1.347 2.94,-1.347c1.136,0 2.117,0.413 2.941,1.237c-0.018,0.788 -0.128,1.613 -0.33,2.474c-0.146,-0 -0.412,-0.028 -0.797,-0.083l-0,-0.275c-0,-1.465 -0.586,-2.198 -1.759,-2.198c-1.52,-0 -2.281,1.053 -2.281,3.16l-0,2.859c1.081,-0 2.373,-0.064 3.876,-0.193c-0,0.532 -0.065,0.962 -0.193,1.292l-3.683,0l-0,9.839c0.861,0.33 1.814,0.522 2.859,0.577c0.036,0.294 0.018,0.568 -0.055,0.825l-6.679,-0c-0.018,-0.092 -0.027,-0.211 -0.027,-0.357c-0,-0.147 0.036,-0.303 0.11,-0.468c0.677,-0.091 1.145,-0.229 1.401,-0.412c0.275,-0.183 0.412,-0.504 0.412,-0.962l-0,-9.014c-0.513,-0.074 -1.108,-0.11 -1.786,-0.11c-0,-0.202 0.018,-0.394 0.055,-0.578c0.641,-0.219 1.218,-0.366 1.731,-0.439l-0,-1.842Zm8.706,20.366l-0.357,-0c-0.183,-0.458 -0.275,-0.852 -0.275,-1.182c-0,-0.311 0.018,-0.559 0.055,-0.742l0.522,-0c0.587,-0 1.045,-0.119 1.374,-0.357c0.349,-0.239 0.688,-0.697 1.017,-1.375l0.99,-2.116l-4.288,-10.581c-0.201,-0.531 -0.43,-0.898 -0.687,-1.099c-0.256,-0.202 -0.696,-0.339 -1.319,-0.413c-0.037,-0.22 -0.055,-0.394 -0.055,-0.522l-0,-0.302l5.662,-0c0.073,0.22 0.11,0.494 0.11,0.824c-0.843,0.073 -1.485,0.202 -1.924,0.385l3.49,9.564c0.055,-0.293 0.156,-0.623 0.302,-0.989l2.859,-7.256c0.11,-0.275 0.165,-0.513 0.165,-0.714c-0,-0.202 -0.055,-0.367 -0.165,-0.495c-0.238,-0.257 -0.797,-0.422 -1.677,-0.495c-0.073,-0.366 -0.091,-0.641 -0.055,-0.824l5.03,-0c0.018,0.256 -0.028,0.531 -0.138,0.824c-0.366,0.055 -0.778,0.147 -1.236,0.275l-5.964,14.237c-0.495,1.191 -0.999,2.043 -1.512,2.556c-0.513,0.531 -1.154,0.797 -1.924,0.797Z" style="fill:#1e1e1e;fill-rule:nonzero;"/><path d="M47.866,44.661c-5.768,7.78 -14.656,10.515 -14.656,10.515c-0,-0 -19.476,-5.993 -19.476,-25.468l-0,-13.484c5.992,0 19.476,-8.989 19.476,-8.989c-0,0 13.483,8.989 19.475,8.989l0,4.961" style="fill:none;fill-rule:nonzero;stroke:#1e1e1e;stroke-width:3.5px;"/></svg>